<svg 
 xmlns="http://www.w3.org/2000/svg"
 xmlns:xlink="http://www.w3.org/1999/xlink"
 width="94px" height="86px">
<path fill-rule="evenodd"  fill="rgb(30, 185, 238)"
 d="M75.868,85.988 L71.839,81.825 L74.657,79.012 C75.919,77.750 75.915,75.706 74.657,74.447 L68.527,68.317 L76.363,60.482 L82.492,66.612 C83.750,67.870 85.798,67.870 87.057,66.612 L89.874,63.798 L93.895,67.819 L75.868,85.988 ZM47.647,72.680 L49.999,70.332 C51.258,69.069 51.258,67.025 49.999,65.763 L20.168,35.935 C20.137,31.692 23.153,26.074 25.860,22.501 L4.012,0.012 L14.097,0.012 L31.434,17.098 C35.006,14.393 40.434,11.399 44.676,11.430 L74.500,41.259 C75.766,42.521 77.806,42.521 79.068,41.259 L81.417,38.914 L86.910,44.401 L53.143,78.172 L47.647,72.680 ZM57.658,62.348 L71.100,48.902 L42.066,19.866 C36.682,22.176 30.585,28.275 28.620,33.312 L35.677,40.369 L42.384,33.658 L45.096,36.366 L38.385,43.076 L41.203,45.894 L47.909,39.183 L50.621,41.891 L43.910,48.601 L46.675,51.365 L53.381,44.655 L56.093,47.363 L49.383,54.073 L52.200,56.891 L58.907,50.180 L61.618,52.888 L54.908,59.598 L57.658,62.348 ZM13.532,23.620 C13.532,27.329 10.531,30.334 6.822,30.334 C3.110,30.334 0.104,27.329 0.104,23.620 C0.104,19.911 2.735,16.097 6.822,10.001 C10.910,16.097 13.532,19.911 13.532,23.620 Z"/>
</svg>