<svg 
 xmlns="http://www.w3.org/2000/svg"
 xmlns:xlink="http://www.w3.org/1999/xlink"
 width="82px" height="79px">
<path fill-rule="evenodd"  fill="rgb(30, 185, 238)"
 d="M14.000,79.000 L14.000,73.000 L50.087,73.000 L35.372,38.909 C37.155,37.322 38.941,36.497 41.526,36.346 L57.348,73.000 L82.000,73.000 L82.000,79.000 L14.000,79.000 ZM67.000,52.000 L79.000,52.000 L79.000,56.000 L67.000,56.000 L67.000,52.000 ZM69.000,41.000 L57.000,41.000 L57.000,37.000 L69.000,37.000 L69.000,41.000 ZM38.000,66.000 L26.000,66.000 L26.000,62.000 L38.000,62.000 L38.000,66.000 ZM50.198,31.898 C40.925,26.128 28.105,31.830 25.954,42.322 C16.721,36.579 3.643,42.200 1.456,52.855 C-2.297,38.819 1.607,18.741 22.097,8.035 L20.713,4.814 C19.985,3.123 20.766,1.163 22.458,0.435 C24.151,-0.292 26.110,0.490 26.837,2.181 L28.228,5.415 C50.030,-1.895 67.385,8.936 74.950,21.256 C65.717,15.513 52.382,21.245 50.198,31.898 ZM7.704,35.641 C12.089,33.561 17.276,32.803 22.299,33.821 C21.399,30.268 21.272,21.394 25.278,13.784 C16.914,17.983 10.209,25.011 7.704,35.641 ZM30.218,11.676 C38.454,14.036 44.648,20.357 46.554,23.398 C49.140,19.285 53.121,15.919 58.106,13.972 C48.542,8.475 38.831,8.616 30.218,11.676 ZM26.000,54.000 L14.000,54.000 L14.000,50.000 L26.000,50.000 L26.000,54.000 Z"/>
</svg>