<svg 
 xmlns="http://www.w3.org/2000/svg"
 xmlns:xlink="http://www.w3.org/1999/xlink"
 width="80px" height="80px">
<path fill-rule="evenodd"  fill="rgb(30, 185, 238)"
 d="M56.666,63.333 L56.666,37.606 L52.028,37.606 C51.452,41.451 48.711,42.576 44.792,42.470 L44.792,46.958 L50.963,46.958 L50.963,63.333 L56.666,63.333 ZM42.288,54.941 C42.288,52.267 40.895,50.179 38.590,49.292 C40.351,48.411 41.377,46.603 41.377,44.280 C41.377,39.795 37.002,37.116 32.773,37.116 C27.852,37.116 24.137,40.198 23.910,46.326 L29.391,46.326 C29.346,43.790 30.296,41.943 32.809,41.943 C34.307,41.943 35.918,42.850 35.918,44.840 C35.918,47.355 33.197,47.715 30.693,47.496 L30.693,51.762 C34.251,51.762 36.374,51.987 36.374,55.047 C36.374,57.459 34.548,58.540 32.738,58.540 C29.997,58.540 28.874,56.494 28.776,53.701 L23.337,53.701 C23.229,60.008 27.051,63.333 32.809,63.333 C37.952,63.333 42.288,60.190 42.288,54.941 ZM20.000,10.000 C20.000,11.841 18.509,13.333 16.667,13.333 C14.824,13.333 13.334,11.841 13.334,10.000 L13.334,3.333 C13.334,1.493 14.824,0.000 16.667,0.000 C18.509,0.000 20.000,1.493 20.000,3.333 L20.000,10.000 ZM66.666,3.333 C66.666,1.493 65.175,0.000 63.333,0.000 C61.491,0.000 60.000,1.493 60.000,3.333 L60.000,10.000 C60.000,11.841 61.491,13.333 63.333,13.333 C65.175,13.333 66.666,11.841 66.666,10.000 L66.666,3.333 ZM73.333,26.667 L6.667,26.667 L6.667,73.333 L73.333,73.333 L73.333,26.667 ZM80.000,6.667 L80.000,79.999 L0.000,79.999 L0.000,6.667 L10.000,6.667 L10.000,10.000 C10.000,13.677 12.992,16.667 16.667,16.667 C20.342,16.667 23.333,13.677 23.333,10.000 L23.333,6.667 L56.666,6.667 L56.666,10.000 C56.666,13.677 59.658,16.667 63.333,16.667 C67.008,16.667 70.000,13.677 70.000,10.000 L70.000,6.667 L80.000,6.667 Z"/>
</svg>