<svg 
 xmlns="http://www.w3.org/2000/svg"
 xmlns:xlink="http://www.w3.org/1999/xlink"
 width="88px" height="80px">
<path fill-rule="evenodd"  fill="rgb(30, 185, 238)"
 d="M74.080,65.423 C69.880,73.175 60.986,80.000 50.982,80.000 C41.116,80.000 33.560,74.557 29.454,65.452 C25.625,63.158 22.803,58.406 22.236,54.435 C12.145,46.661 0.363,28.361 0.363,18.205 C0.363,9.544 7.181,4.817 15.782,3.817 C17.011,1.545 19.418,-0.001 22.182,-0.001 C26.196,-0.001 29.454,3.257 29.454,7.272 C29.454,11.286 26.196,14.544 22.182,14.544 C19.582,14.544 17.298,13.176 16.014,11.122 C8.560,12.209 6.734,15.802 8.051,21.060 C10.352,30.393 21.160,46.032 29.534,50.588 C32.287,52.101 33.873,52.119 36.662,50.595 C46.575,45.203 58.411,26.244 58.546,18.383 C58.626,13.700 54.804,11.762 50.182,11.104 C48.895,13.169 46.611,14.544 44.000,14.544 C39.985,14.544 36.727,11.286 36.727,7.272 C36.727,3.257 39.985,-0.001 44.000,-0.001 C46.760,-0.001 49.164,1.541 50.396,3.806 C59.815,4.879 66.346,10.300 65.789,19.220 C65.117,29.619 53.811,46.926 43.967,54.457 C43.614,58.358 41.389,62.576 37.444,65.034 C41.054,70.885 46.665,73.343 52.782,72.623 C58.706,71.928 64.215,67.656 67.182,62.831 C64.142,60.500 62.182,56.838 62.182,52.726 C62.182,45.701 67.884,39.996 74.909,39.996 C81.931,39.996 87.637,45.701 87.637,52.726 C87.637,59.765 81.829,65.823 74.080,65.423 ZM74.909,47.272 C71.898,47.272 69.455,49.715 69.455,52.726 C69.455,55.729 71.898,58.180 74.909,58.180 C77.920,58.180 80.364,55.729 80.364,52.726 C80.364,49.715 77.920,47.272 74.909,47.272 Z"/>
</svg>